<svg width="18" height="16" viewBox="0 0 18 16" fill="none" xmlns="http://www.w3.org/2000/svg">
<path d="M1.41421 6.35359L0.7071 7.06069L0 6.35359L0.7071 5.64648L1.41421 6.35359ZM18.4142 14.3536C18.4142 14.9059 17.9665 15.3536 17.4142 15.3536C16.8619 15.3536 16.4142 14.9059 16.4142 14.3536H18.4142ZM5.7071 12.0607L0.7071 7.06069L2.12132 5.64648L7.12132 10.6465L5.7071 12.0607ZM0.7071 5.64648L5.7071 0.646484L7.12132 2.0607L2.12132 7.06069L0.7071 5.64648ZM1.41421 5.35359H11.4142V7.35359H1.41421V5.35359ZM18.4142 12.3536V14.3536H16.4142V12.3536H18.4142ZM11.4142 5.35359C15.2802 5.35359 18.4142 8.48759 18.4142 12.3536H16.4142C16.4142 9.59219 14.1756 7.35359 11.4142 7.35359V5.35359Z" fill="white"/>
</svg>
