<svg width="25" height="15" viewBox="0 0 25 15" fill="none" xmlns="http://www.w3.org/2000/svg">
<g clip-path="url(#clip0_123_144)">
<path d="M12 12.7603C10.5923 12.7603 9.12009 12.4637 8.25731 11.8367C8.25731 11.847 8.25 11.8572 8.25 11.8667C8.25 12.0242 8.25 12.6036 8.25 12.7603C8.25 13.5835 9.92869 14.25 12 14.25C14.0713 14.25 15.75 13.5835 15.75 12.7603C15.75 12.6035 15.75 12.0242 15.75 11.8667C15.75 11.8572 15.7427 11.847 15.7427 11.8367C14.8799 12.4637 13.407 12.7603 12 12.7603Z" fill="#F4E34A"/>
<path d="M12 10.5256C10.5923 10.5256 9.12009 10.2298 8.25731 9.60275C8.25731 9.61302 8.25 9.62253 8.25 9.6328C8.25 9.79025 8.25 10.3689 8.25 10.5256C8.25 11.3488 9.92869 12.0161 12 12.0161C14.0713 12.0161 15.75 11.3489 15.75 10.5256C15.75 10.3689 15.75 9.79025 15.75 9.6328C15.75 9.62253 15.7427 9.61302 15.7427 9.60275C14.8799 10.2297 13.407 10.5256 12 10.5256Z" fill="#F4E34A"/>
<path d="M8.25 7.43701C8.25 7.62596 8.25 8.14379 8.25 8.29248C8.25 9.1157 9.92869 9.78222 12 9.78222C14.0713 9.78222 15.75 9.1157 15.75 8.29248C15.75 8.14379 15.75 7.62596 15.75 7.43701C14.8887 8.06837 13.4114 8.3672 12 8.3672C10.5886 8.3672 9.11133 8.06837 8.25 7.43701Z" fill="#F4E34A"/>
<path d="M12 3.75C9.92869 3.75 8.25 4.41652 8.25 5.23973C8.25 5.39648 8.25 5.97581 8.25 6.13327C8.25 6.95503 9.92869 7.6223 12 7.6223C14.0713 7.6223 15.75 6.95508 15.75 6.13327C15.75 5.97581 15.75 5.39644 15.75 5.23973C15.75 4.41652 14.0713 3.75 12 3.75Z" fill="#F4E34A"/>
<path d="M20.75 9.01025C19.3423 9.01025 17.8701 8.71362 17.0073 8.08667C17.0073 8.09694 17 8.1072 17 8.11672C17 8.27417 17 8.85355 17 9.01025C17 9.83347 18.6787 10.5 20.75 10.5C22.8213 10.5 24.5 9.83347 24.5 9.01025C24.5 8.8535 24.5 8.27417 24.5 8.11672C24.5 8.1072 24.4927 8.09694 24.4927 8.08667C23.6299 8.71362 22.157 9.01025 20.75 9.01025Z" fill="#F4E34A"/>
<path d="M3.75 10.0102C2.3423 10.0102 0.870094 9.71362 0.00731277 9.08667C0.00731277 9.09694 0 9.1072 0 9.11672C0 9.27417 0 9.85355 0 10.0102C0 10.8335 1.67869 11.5 3.75 11.5C5.82131 11.5 7.5 10.8335 7.5 10.0102C7.5 9.8535 7.5 9.27417 7.5 9.11672C7.5 9.1072 7.49269 9.09694 7.49269 9.08667C6.62991 9.71362 5.157 10.0102 3.75 10.0102Z" fill="#F4E34A"/>
<path d="M20.75 6.77566C19.3423 6.77566 17.8701 6.47978 17.0073 5.85278C17.0073 5.86305 17 5.87256 17 5.88283C17 6.04028 17 6.61891 17 6.77566C17 7.59888 18.6787 8.26614 20.75 8.26614C22.8213 8.26614 24.5 7.59892 24.5 6.77566C24.5 6.61891 24.5 6.04028 24.5 5.88283C24.5 5.87256 24.4927 5.86305 24.4927 5.85278C23.6299 6.47974 22.157 6.77566 20.75 6.77566Z" fill="#F4E34A"/>
<path d="M3.75 7.77566C2.3423 7.77566 0.870094 7.47978 0.00731277 6.85278C0.00731277 6.86305 0 6.87256 0 6.88283C0 7.04028 0 7.61891 0 7.77566C0 8.59888 1.67869 9.26614 3.75 9.26614C5.82131 9.26614 7.5 8.59892 7.5 7.77566C7.5 7.61891 7.5 7.04028 7.5 6.88283C7.5 6.87256 7.49269 6.86305 7.49269 6.85278C6.62991 7.47974 5.157 7.77566 3.75 7.77566Z" fill="#F4E34A"/>
<path d="M17 3.68701C17 3.87596 17 4.39379 17 4.54248C17 5.3657 18.6787 6.03222 20.75 6.03222C22.8213 6.03222 24.5 5.3657 24.5 4.54248C24.5 4.39379 24.5 3.87596 24.5 3.68701C23.6387 4.31837 22.1614 4.6172 20.75 4.6172C19.3386 4.6172 17.8613 4.31837 17 3.68701Z" fill="#F4E34A"/>
<path d="M0 4.68701C0 4.87596 0 5.39379 0 5.54248C0 6.3657 1.67869 7.03222 3.75 7.03222C5.82131 7.03222 7.5 6.3657 7.5 5.54248C7.5 5.39379 7.5 4.87596 7.5 4.68701C6.63867 5.31837 5.16136 5.6172 3.75 5.6172C2.33864 5.6172 0.861328 5.31837 0 4.68701Z" fill="#F4E34A"/>
<path d="M20.75 0C18.6787 0 17 0.666516 17 1.48973C17 1.64648 17 2.22581 17 2.38327C17 3.20503 18.6787 3.8723 20.75 3.8723C22.8213 3.8723 24.5 3.20508 24.5 2.38327C24.5 2.22581 24.5 1.64644 24.5 1.48973C24.5 0.666516 22.8213 0 20.75 0Z" fill="#F4E34A"/>
<path d="M3.75 1C1.67869 1 0 1.66652 0 2.48973C0 2.64648 0 3.22581 0 3.38327C0 4.20503 1.67869 4.8723 3.75 4.8723C5.82131 4.8723 7.5 4.20508 7.5 3.38327C7.5 3.22581 7.5 2.64644 7.5 2.48973C7.5 1.66652 5.82131 1 3.75 1Z" fill="#F4E34A"/>
</g>
<defs>
<clipPath id="clip0_123_144">
<rect width="25" height="15" fill="white"/>
</clipPath>
</defs>
</svg>
