<svg width="24" height="22" viewBox="0 0 24 22" fill="none" xmlns="http://www.w3.org/2000/svg">
<path fill-rule="evenodd" clip-rule="evenodd" d="M19.4156 2.60821C18.4393 1.6319 16.8564 1.6319 15.88 2.60821L4.08205 14.4062C3.73305 14.7552 3.49516 15.1997 3.39837 15.6836L2.90915 18.1298C2.67591 19.296 3.7041 20.3242 4.8703 20.091L7.31642 19.6017C7.8004 19.505 8.2449 19.2671 8.5939 18.9181L20.3919 7.12005C21.3682 6.14374 21.3682 4.56083 20.3919 3.58452L19.4156 2.60821ZM17.0585 3.78672C17.384 3.46128 17.9116 3.46128 18.2371 3.78672L19.2134 4.76303C19.5389 5.08847 19.5389 5.6161 19.2134 5.94154L16.987 8.16787L14.8323 6.01304L17.0585 3.78672ZM13.6537 7.19156L5.26056 15.5847C5.14423 15.7011 5.06494 15.8492 5.03267 16.0106L4.54345 18.4566L6.98956 17.9674C7.15089 17.9351 7.29906 17.8559 7.41539 17.7396L15.8085 9.34638L13.6537 7.19156Z" fill="white"/>
</svg>
